<?xml version="1.0" encoding="UTF-8" standalone="no"?>
<!DOCTYPE svg PUBLIC "-//W3C//DTD SVG 1.1//EN" "http://www.w3.org/Graphics/SVG/1.1/DTD/svg11.dtd">
<svg width="100%" height="100%" viewBox="0 0 173 128" version="1.1" xmlns="http://www.w3.org/2000/svg" xmlns:xlink="http://www.w3.org/1999/xlink" xml:space="preserve" xmlns:serif="http://www.serif.com/" style="fill-rule:evenodd;clip-rule:evenodd;stroke-linejoin:round;stroke-miterlimit:1.41421;">
    <g>
        <path d="M44.5,121.1C44.5,117.3 47.2,114.2 51,114.2C52.7,114.2 54.3,114.9 55.1,115.9L55.5,114.5L58.2,114.5L58.2,127.6L55.5,127.6L55.1,126.2C54.4,127.2 52.7,127.9 51,127.9C47.3,128 44.5,124.9 44.5,121.1ZM55.4,121.1C55.4,118.8 53.8,117 51.5,117C49.2,117 47.6,118.8 47.6,121.1C47.6,123.4 49.2,125.2 51.5,125.2C53.8,125.2 55.4,123.4 55.4,121.1Z" style="fill:white;fill-rule:nonzero;"/>
        <path d="M62.4,114.5L65.1,114.5L65.4,116.2C66.2,114.9 67.4,114.2 68.7,114.2C69.4,114.2 70,114.3 70.5,114.5L69.9,117.7C69.5,117.6 68.8,117.5 68.3,117.5C66.5,117.5 65.5,118.7 65.5,120.9L65.5,127.8L62.4,127.8L62.4,114.5Z" style="fill:white;fill-rule:nonzero;"/>
        <path d="M70.6,121.1C70.6,117.3 73.3,114.2 77.1,114.2C81.1,114.2 83.6,117 83.6,120.8C83.6,121.1 83.6,121.7 83.5,122L73.7,122C73.8,123.9 75.3,125.2 77.4,125.2C78.9,125.2 79.8,124.5 80.6,123.2L83.2,124.3C82.2,126.5 80,127.9 77.1,127.9C73.1,128 70.6,125 70.6,121.1ZM80.5,119.7C80.4,118.1 79,117 77.2,117C75.3,117 73.8,118.2 73.7,119.7L80.5,119.7Z" style="fill:white;fill-rule:nonzero;"/>
        <path d="M86.7,114.5L89.4,114.5L89.8,116.3C90.5,115.1 92,114.1 93.7,114.1C97.1,114.1 98.8,116.1 98.8,119.8L98.8,127.6L95.7,127.6L95.7,120.6C95.7,118.3 94.9,117 93.1,117C91.3,117 89.9,118.7 89.9,122.3L89.9,127.7L86.8,127.7L86.8,114.5L86.7,114.5Z" style="fill:white;fill-rule:nonzero;"/>
        <path d="M101.7,121.1C101.7,117.3 104.4,114.2 108.2,114.2C109.9,114.2 111.5,114.9 112.3,115.9L112.7,114.5L115.4,114.5L115.4,127.6L112.7,127.6L112.3,126.2C111.6,127.2 109.9,127.9 108.2,127.9C104.4,128 101.7,124.9 101.7,121.1ZM112.6,121.1C112.6,118.8 111,117 108.7,117C106.4,117 104.8,118.8 104.8,121.1C104.8,123.4 106.4,125.2 108.7,125.2C111,125.2 112.6,123.4 112.6,121.1Z" style="fill:white;fill-rule:nonzero;"/>
        <g>
            <path d="M24,8.5L36,8.5L60,72.9L47.8,72.9L42.5,58.5L17.3,58.5L12,72.9L0,72.9L24,8.5ZM39,48.2L30,21.5L20.8,48.2L39,48.2Z" style="fill:white;fill-rule:nonzero;"/>
            <path d="M63.3,75.2C63.3,66.4 69.5,59.4 78.5,59.4C82.4,59.4 85.9,61.3 87.6,63.3L87.6,47.1L94.7,47.1L94.7,90.3L88.5,90.3L87.7,87.1C86,89.1 82.4,91 78.4,91C69.5,91 63.3,84 63.3,75.2ZM88.3,75.2C88.3,69.8 84.6,65.8 79.4,65.8C74.2,65.8 70.5,69.8 70.5,75.2C70.5,80.6 74.2,84.6 79.4,84.6C84.5,84.6 88.3,80.6 88.3,75.2Z" style="fill:white;fill-rule:nonzero;"/>
            <path d="M98.1,40.7C98.1,21.5 112,6.9 131.3,6.9C150.6,6.9 164.5,21.6 164.5,40.7C164.5,59.8 150.1,74.5 131.3,74.5C112.5,74.5 98.1,59.8 98.1,40.7ZM152.8,40.7C152.8,27.2 143,17.5 131.3,17.5C119.6,17.5 109.6,27.2 109.6,40.7C109.6,54.2 119.3,63.9 131.3,63.9C143.3,63.9 152.8,54.2 152.8,40.7Z" style="fill:white;fill-rule:nonzero;"/>
        </g>
        <path d="M166.1,12.7C162.6,12.7 159.8,9.9 159.8,6.4C159.8,2.9 162.6,0.1 166.1,0.1C169.6,0.1 172.4,2.9 172.4,6.4C172.4,9.9 169.6,12.7 166.1,12.7ZM166.1,0.8C163.1,0.8 160.6,3.3 160.6,6.3C160.6,9.3 163.1,11.8 166.1,11.8C169.1,11.8 171.6,9.3 171.6,6.3C171.6,3.3 169.1,0.8 166.1,0.8Z" style="fill:white;fill-rule:nonzero;"/>
        <path d="M163.9,3.4L166.5,3.4C166.9,3.4 167.3,3.5 167.6,3.6C168.1,3.8 168.4,4.3 168.4,5C168.4,5.3 168.3,5.6 168.2,5.9C168.1,6.1 167.9,6.3 167.6,6.4C167.8,6.5 168,6.6 168.1,6.8C168.2,7 168.3,7.2 168.3,7.5L168.3,8.3C168.3,8.5 168.3,8.7 168.4,8.8C168.4,9 168.5,9.1 168.7,9.2L168.7,9.3L167.7,9.3C167.7,9.2 167.7,9.2 167.6,9.1C167.6,9 167.6,8.9 167.6,8.6L167.6,7.6C167.6,7.2 167.4,7 167.2,6.8C167.1,6.7 166.8,6.7 166.5,6.7L164.8,6.7L164.8,9.2L164,9.2L164,3.4L163.9,3.4ZM166.5,6.1C166.9,6.1 167.1,6 167.4,5.9C167.6,5.8 167.7,5.5 167.7,5.1C167.7,4.7 167.6,4.4 167.3,4.3C167.1,4.2 166.9,4.2 166.7,4.2L164.8,4.2L164.8,6.2L166.5,6.2L166.5,6.1Z" style="fill:white;fill-rule:nonzero;"/>
    </g>
</svg>
