<?xml version="1.0" encoding="utf-8"?>
<!-- Generator: Adobe Illustrator 25.4.1, SVG Export Plug-In . SVG Version: 6.00 Build 0)  -->
<svg version="1.1" xmlns="http://www.w3.org/2000/svg" xmlns:xlink="http://www.w3.org/1999/xlink" x="0px" y="0px"
	 viewBox="0 0 298 76" style="enable-background:new 0 0 298 76;" xml:space="preserve">
<style type="text/css">
	.st0{clip-path:url(#SVGID_00000107574849438242533360000004071932337080957885_);fill:#646B6E;}
	.st1{display:none;clip-path:url(#SVGID_00000156555795870766349420000000738098602626731452_);fill:#F26E24;}
	.st2{fill:#646B6E;}
	.st3{display:none;}
	.st4{display:inline;}
	.st5{clip-path:url(#SVGID_00000083794755063640116940000005163168388594452136_);fill:#BABDBD;}
	.st6{clip-path:url(#SVGID_00000086662296293056928240000009864710965518068408_);fill:#F26E24;}
	.st7{display:inline;fill:#BABDBD;}
	.st8{font-family:'Quantify-Bold';}
	.st9{font-size:77.2521px;}
	.st10{fill:#BABDBD;}
</style>
<g id="Dark">
	<g>
		<defs>
			<rect id="SVGID_1_" x="-1" y="-3.5" width="60.4" height="67.3"/>
		</defs>
		<clipPath id="SVGID_00000001646379947514277760000015136859855835518140_">
			<use xlink:href="#SVGID_1_"  style="overflow:visible;"/>
		</clipPath>
		<path style="clip-path:url(#SVGID_00000001646379947514277760000015136859855835518140_);fill:#646B6E;" d="M13.1,1.8l7.3,11.6
			h5.1c0,0,12.8-1,17.3,8.7C47.4,31.8,43,45.4,30,46.5H19L12,59h13.6c0,0,29.3,1.9,31.6-26.8c0,0,1.9-21.3-19.4-29.2
			c0,0-5-1.4-12-1.3C18.8,1.9,13.1,1.8,13.1,1.8"/>
	</g>
	<g>
		<defs>
			<polygon id="SVGID_00000163785599269312118650000012803974281491110536_" points="1.7,13.4 11.8,29.3 1.9,46.5 8.8,59 25.5,29.2 
				8.8,1.8 			"/>
		</defs>
		<use xlink:href="#SVGID_00000163785599269312118650000012803974281491110536_"  style="overflow:visible;fill:#F26E24;"/>
		<clipPath id="SVGID_00000135666757494338121340000006867753180763361949_">
			<use xlink:href="#SVGID_00000163785599269312118650000012803974281491110536_"  style="overflow:visible;"/>
		</clipPath>
		
			<rect x="-2.2" y="0.4" transform="matrix(0.9901 -0.1402 0.1402 0.9901 -4.128 2.2028)" style="display:none;clip-path:url(#SVGID_00000135666757494338121340000006867753180763361949_);fill:#F26E24;" width="31.6" height="60"/>
	</g>
	<g>
		<path class="st2" d="M63.4,4h9.3v9.3h-9.3V4z M63.4,58V19.4h9.3V58H63.4z"/>
	</g>
	<g>
		<g>
			<path class="st2" d="M117.9,54.2c0,2.8-0.5,5.4-1.6,7.9c-1.1,2.5-2.5,4.6-4.4,6.5c-1.9,1.9-4,3.3-6.5,4.4c-2.5,1.1-5.1,1.6-8,1.6
				c-2.3,0-4.5-0.4-6.6-1.1c-2.1-0.7-4-1.8-5.7-3.1l6.7-6.6c1.6,1,3.5,1.5,5.6,1.5c3.1,0,5.8-1.1,7.9-3.3c2.2-2.2,3.2-4.8,3.2-7.8
				V38.6c0-3-1.1-5.6-3.2-7.9c-2.2-2.2-4.8-3.2-7.9-3.2c-3,0-5.6,1.1-7.9,3.2c-2.2,2.3-3.2,4.9-3.2,7.9c0,3.1,1.1,5.7,3.2,7.9
				c2.3,2.2,4.9,3.2,7.9,3.2c1.5,0,2.9-0.3,4.2-0.8l3.5,8.7c-2.3,0.9-4.8,1.4-7.5,1.4h-0.2c-2.8,0-5.4-0.5-7.9-1.6
				c-2.5-1.1-4.6-2.5-6.5-4.4c-1.9-1.9-3.3-4-4.4-6.5c-1.1-2.5-1.6-5.1-1.6-8c0-2.8,0.5-5.5,1.4-8c0.9-2.5,2.2-4.6,3.9-6.5
				c1.7-1.9,3.7-3.3,6-4.4c2.3-1.1,4.9-1.6,7.7-1.6c2.7,0,5,0.4,7.1,1.2c2.1,0.8,3.9,1.8,5.4,3v-3h9.3V54.2z"/>
		</g>
	</g>
	<g>
		<g>
			<path class="st2" d="M122.7,4h9.3v9.3h-9.3V4z M122.7,58V19.4h9.3V58H122.7z"/>
		</g>
	</g>
	<g>
		<g>
			<path class="st2" d="M184.4,50.8c-2.6,2.6-5.6,4.6-9,6.1c-3.4,1.5-7.1,2.2-11,2.2c-3.9,0-7.5-0.7-10.9-2.2c-3.4-1.5-6.4-3.5-9-6
				c-2.5-2.5-4.6-5.5-6-9c-1.5-3.4-2.2-7.1-2.2-10.9c0-3.9,0.7-7.5,2.2-10.9c1.5-3.4,3.5-6.4,6-9s5.5-4.6,9-6
				c3.4-1.5,7.1-2.2,10.9-2.2c3.9,0,7.6,0.7,11,2.2c3.4,1.5,6.4,3.5,9,6.1l-6.6,6.6c-1.8-1.8-3.8-3.2-6.1-4.1
				c-2.3-1-4.7-1.4-7.3-1.4c-2.5,0-4.9,0.5-7.2,1.4c-2.3,1-4.3,2.3-6.1,4.1c-1.8,1.8-3.2,3.8-4.1,6.1c-1,2.3-1.4,4.7-1.4,7.2
				c0,2.5,0.5,4.9,1.4,7.2c1,2.3,2.3,4.3,4.1,6.1c1.8,1.8,3.8,3.2,6.1,4.1c2.3,0.9,4.7,1.4,7.2,1.4c2.6,0,5-0.5,7.3-1.4
				c2.3-0.9,4.3-2.3,6.1-4.1L184.4,50.8z"/>
		</g>
	</g>
	<g>
		<g>
			<path class="st2" d="M228.1,19.3V58h-9.3V38.7c0-3.1-1.1-5.7-3.2-7.9c-2.2-2.2-4.8-3.2-7.9-3.2c-1.5,0-2.9,0.3-4.3,0.9
				c-1.4,0.6-2.6,1.4-3.6,2.4c-2.2,2.2-3.2,4.8-3.2,7.9c0,3,1.1,5.6,3.2,7.8c1,1.1,2.2,1.9,3.6,2.4c1.4,0.5,2.8,0.8,4.3,0.8
				c1.5,0,2.9-0.3,4.2-0.8l3.3,8.3c-2.4,1.2-5.1,1.8-8.3,1.8c-2.8,0-5.4-0.5-7.8-1.6c-2.4-1.1-4.5-2.5-6.2-4.4
				c-1.8-1.9-3.1-4-4.1-6.5c-1-2.5-1.5-5.1-1.5-7.9c0-2.8,0.5-5.5,1.5-8c1-2.5,2.3-4.6,4.1-6.5c1.8-1.9,3.8-3.3,6.2-4.4
				c2.4-1.1,5-1.6,7.8-1.6c2.5,0,4.8,0.4,6.7,1.2s3.7,1.8,5.2,2.9v-3.1H228.1z"/>
		</g>
	</g>
	<g>
		<g>
			<path class="st2" d="M247.7,19.4c1.8-0.8,3.9-1.2,6.2-1.2v9.3c-3.1,0-5.7,1.1-7.9,3.2c-2.2,2.3-3.2,4.9-3.2,7.9V58h-9.3V38.6
				V19.3h9.3v3C244.2,21.2,245.8,20.2,247.7,19.4z"/>
		</g>
	</g>
	<g>
		<g>
			<path class="st2" d="M285.4,43.4h-20.2c0.5,1.2,1.3,2.2,2.2,3.2c1.1,1.1,2.3,1.9,3.6,2.4c1.3,0.5,2.8,0.8,4.2,0.8
				c2.1,0,4-0.5,5.6-1.5l9.7,3.9c-1.9,2.2-4.1,3.9-6.7,5.1c-2.6,1.2-5.5,1.8-8.6,1.8c-2.8,0-5.5-0.5-8-1.6c-2.5-1.1-4.6-2.5-6.5-4.4
				c-1.9-1.9-3.3-4-4.4-6.5c-1.1-2.5-1.6-5.1-1.6-7.9c0-2.8,0.5-5.5,1.6-8c1.1-2.5,2.5-4.6,4.4-6.5c1.9-1.9,4-3.3,6.5-4.4
				c2.5-1.1,5.1-1.6,8-1.6c2.8,0,5.5,0.5,8,1.6c2.5,1.1,4.6,2.5,6.5,4.4c1.9,1.9,3.3,4,4.4,6.5c1.1,2.5,1.6,5.1,1.6,8
				c0,1.6-0.2,3.2-0.5,4.6H285.4z M275.3,27.6c-3,0-5.6,1.1-7.9,3.2c-1,1-1.7,2.1-2.2,3.2h20.2c-0.5-1.2-1.3-2.3-2.2-3.2
				C281,28.7,278.4,27.6,275.3,27.6z"/>
		</g>
	</g>
</g>
<g id="Light" class="st3">
	<g class="st4">
		<defs>
			<rect id="SVGID_00000071535093178148746400000012962509070409382045_" x="-1" y="-3.5" width="60.4" height="67.3"/>
		</defs>
		<clipPath id="SVGID_00000060017324987943285850000001796654019808878732_">
			<use xlink:href="#SVGID_00000071535093178148746400000012962509070409382045_"  style="overflow:visible;"/>
		</clipPath>
		<path style="clip-path:url(#SVGID_00000060017324987943285850000001796654019808878732_);fill:#BABDBD;" d="M13.1,1.8l7.3,11.6
			h5.1c0,0,12.8-1,17.3,8.7C47.4,31.8,43,45.4,30,46.5H19L12,59h13.6c0,0,29.3,1.9,31.6-26.8c0,0,1.9-21.3-19.4-29.2
			c0,0-5-1.4-12-1.3C18.8,1.9,13.1,1.8,13.1,1.8"/>
	</g>
	<g class="st4">
		<defs>
			<polygon id="SVGID_00000063610792994886990910000007886417716205550010_" points="1.7,13.4 11.8,29.3 1.9,46.5 8.8,59 25.5,29.2 
				8.8,1.8 			"/>
		</defs>
		<use xlink:href="#SVGID_00000063610792994886990910000007886417716205550010_"  style="overflow:visible;fill:#F26E24;"/>
		<clipPath id="SVGID_00000012474890691926021530000011692701638862425234_">
			<use xlink:href="#SVGID_00000063610792994886990910000007886417716205550010_"  style="overflow:visible;"/>
		</clipPath>
		
			<rect x="-2.2" y="0.4" transform="matrix(0.9901 -0.1402 0.1402 0.9901 -4.128 2.2028)" style="clip-path:url(#SVGID_00000012474890691926021530000011692701638862425234_);fill:#F26E24;" width="31.6" height="60"/>
	</g>
	<text transform="matrix(1 0 0 1 58.7534 58.0371)" class="st7 st8 st9">i</text>
	<g class="st4">
		<text transform="matrix(1 0 0 1 74.7563 58.0371)" class="st10 st8 st9">g</text>
	</g>
	<g class="st4">
		<text transform="matrix(1 0 0 1 118.0259 58.0371)" class="st10 st8 st9">i</text>
	</g>
	<g class="st4">
		<text transform="matrix(1 0 0 1 134.0308 58.0371)" class="st10 st8 st9">C</text>
	</g>
	<g class="st4">
		<text transform="matrix(1 0 0 1 185.0049 58.0371)" class="st10 st8 st9">a</text>
	</g>
	<g class="st4">
		<text transform="matrix(1 0 0 1 228.8662 58.0371)" class="st10 st8 st9">r</text>
	</g>
	<g class="st4">
		<text transform="matrix(1 0 0 1 252.5762 58.0371)" class="st10 st8 st9">e</text>
	</g>
</g>
</svg>
