<svg xmlns="http://www.w3.org/2000/svg" xmlns:xlink="http://www.w3.org/1999/xlink" preserveAspectRatio="xMidYMid" width="175" height="177" viewBox="0 0 175 177">
  <defs>
    <style>
      .cls-1 {
        fill: #f8f7f2;
        fill-rule: evenodd;
      }
    </style>
  </defs>
  <path d="M172.172,74.979 C171.397,75.155 170.721,75.075 170.147,74.735 C169.615,74.422 169.207,73.917 168.924,73.220 L165.916,76.482 L165.514,74.719 L168.440,71.449 L167.388,66.832 L163.897,67.626 L163.551,66.110 L172.709,64.027 L174.354,71.240 C174.573,72.201 174.485,73.014 174.091,73.679 C173.697,74.344 173.058,74.778 172.172,74.979 ZM172.903,71.185 L171.688,65.853 L168.754,66.521 L170.001,71.991 C170.268,73.162 170.873,73.640 171.818,73.425 C172.829,73.195 173.192,72.448 172.903,71.185 ZM167.538,54.004 L165.292,54.883 L167.297,59.999 L165.993,60.509 L163.987,55.393 L161.402,56.404 L164.420,64.102 L163.115,64.612 L159.530,55.466 L168.275,52.046 L171.728,60.854 L170.424,61.364 L167.538,54.004 ZM163.883,46.634 L156.910,50.531 L156.149,49.175 L163.123,45.277 L160.931,41.364 L162.154,40.681 L167.298,49.862 L166.075,50.546 L163.883,46.634 ZM152.198,42.848 L153.918,32.478 L147.819,37.177 L146.869,35.945 L154.306,30.216 L155.486,31.745 L153.765,42.119 L159.867,37.419 L160.818,38.650 L153.380,44.379 L152.198,42.848 ZM145.338,23.323 L143.676,25.070 L147.665,28.853 L146.700,29.868 L142.712,26.085 L140.800,28.095 L146.801,33.788 L145.836,34.803 L138.706,28.040 L145.174,21.237 L152.041,27.751 L151.076,28.766 L145.338,23.323 ZM137.499,16.893 C136.715,16.341 136.049,16.010 135.503,15.899 C134.956,15.789 134.568,15.896 134.339,16.221 C134.100,16.560 134.147,16.964 134.483,17.432 C134.721,17.770 135.186,18.213 135.877,18.764 C136.887,19.581 137.547,20.130 137.856,20.412 C138.727,21.216 139.270,21.953 139.486,22.623 C139.701,23.292 139.584,23.944 139.136,24.580 C138.562,25.391 137.758,25.766 136.723,25.703 C135.688,25.639 134.496,25.132 133.146,24.181 C131.188,22.802 129.969,21.298 129.489,19.671 L130.840,19.242 C131.523,20.823 132.556,22.101 133.942,23.077 C134.839,23.709 135.623,24.076 136.292,24.178 C136.935,24.272 137.403,24.110 137.697,23.693 C138.041,23.206 137.960,22.663 137.453,22.062 C137.187,21.748 136.373,21.042 135.011,19.945 C133.806,18.969 133.039,18.175 132.709,17.562 C132.325,16.847 132.379,16.140 132.873,15.442 C133.381,14.722 134.120,14.391 135.089,14.450 C136.058,14.509 137.157,14.972 138.387,15.838 C140.040,17.004 141.159,18.357 141.742,19.899 L140.363,20.212 C139.634,18.831 138.679,17.725 137.499,16.893 ZM124.388,9.613 L123.297,11.763 L128.204,14.246 L127.571,15.495 L122.664,13.011 L121.409,15.484 L128.792,19.221 L128.159,20.469 L119.387,16.030 L123.633,7.662 L132.080,11.937 L131.447,13.186 L124.388,9.613 ZM115.052,5.688 C114.144,5.373 113.413,5.239 112.857,5.284 C112.301,5.329 111.958,5.539 111.828,5.914 C111.692,6.306 111.850,6.681 112.302,7.039 C112.624,7.297 113.194,7.595 114.010,7.933 C115.207,8.440 115.993,8.785 116.368,8.970 C117.428,9.502 118.154,10.061 118.547,10.645 C118.938,11.229 119.007,11.888 118.751,12.623 C118.425,13.561 117.756,14.143 116.744,14.368 C115.732,14.593 114.446,14.435 112.885,13.893 C110.622,13.109 109.034,12.000 108.123,10.569 L109.302,9.784 C110.395,11.114 111.743,12.057 113.344,12.613 C114.382,12.973 115.236,13.109 115.907,13.021 C116.551,12.934 116.957,12.650 117.124,12.168 C117.320,11.605 117.091,11.105 116.438,10.668 C116.095,10.439 115.118,9.986 113.505,9.308 C112.076,8.703 111.119,8.151 110.633,7.653 C110.066,7.072 109.923,6.378 110.204,5.570 C110.493,4.738 111.112,4.216 112.059,4.006 C113.006,3.795 114.191,3.936 115.613,4.429 C117.525,5.092 118.974,6.084 119.961,7.404 L118.722,8.086 C117.639,6.961 116.416,6.161 115.052,5.688 ZM107.554,11.900 L98.907,10.223 L100.697,1.014 L102.225,1.310 L100.702,9.146 L107.821,10.526 L107.554,11.900 ZM89.488,1.484 L89.353,3.890 L94.845,4.198 L94.766,5.595 L89.275,5.287 L89.119,8.056 L97.383,8.519 L97.305,9.916 L87.486,9.366 L88.012,-0.000 L97.467,0.529 L97.389,1.926 L89.488,1.484 ZM83.201,5.356 L75.714,6.098 L76.126,10.250 L74.577,10.404 L73.649,1.069 L75.199,0.915 L75.575,4.706 L83.062,3.964 L82.686,0.173 L84.235,0.019 L85.163,9.354 L83.613,9.508 L83.201,5.356 ZM64.587,13.174 C63.364,13.550 62.241,13.739 61.220,13.739 C60.329,13.739 59.515,13.596 58.777,13.309 L59.263,11.980 C60.031,12.176 60.795,12.274 61.553,12.274 C62.442,12.274 63.323,12.139 64.198,11.870 C65.247,11.547 66.017,11.152 66.506,10.684 C66.973,10.233 67.131,9.764 66.981,9.277 C66.815,8.740 66.377,8.471 65.669,8.471 C65.626,8.471 65.583,8.472 65.538,8.474 C65.127,8.492 64.071,8.705 62.368,9.111 C61.224,9.382 60.315,9.517 59.644,9.517 C59.430,9.517 59.239,9.503 59.073,9.475 C58.272,9.343 57.745,8.868 57.493,8.051 C57.233,7.209 57.422,6.423 58.061,5.692 C58.700,4.962 59.738,4.376 61.176,3.933 C62.246,3.603 63.262,3.438 64.223,3.438 C64.999,3.438 65.740,3.545 66.445,3.760 L65.850,5.042 C65.256,4.939 64.673,4.887 64.103,4.887 C63.196,4.887 62.318,5.018 61.470,5.279 C60.553,5.562 59.883,5.886 59.462,6.250 C59.041,6.615 58.889,6.988 59.006,7.367 C59.129,7.764 59.478,7.973 60.054,7.993 C60.087,7.995 60.120,7.995 60.155,7.995 C60.567,7.995 61.169,7.898 61.961,7.705 C63.226,7.405 64.065,7.219 64.477,7.147 C65.006,7.057 65.484,7.012 65.909,7.012 C66.424,7.012 66.862,7.078 67.224,7.208 C67.886,7.447 68.332,7.938 68.562,8.681 C68.855,9.630 68.660,10.495 67.978,11.275 C67.296,12.055 66.165,12.688 64.587,13.174 ZM56.165,15.969 L46.349,12.181 L49.717,19.100 L48.317,19.780 L44.210,11.343 L45.949,10.498 L55.770,14.288 L52.401,7.366 L53.801,6.686 L57.907,15.124 L56.165,15.969 ZM41.521,17.561 L42.319,18.711 L37.797,21.839 L39.378,24.119 L46.182,19.412 L46.979,20.562 L38.896,26.154 L33.548,18.443 L41.333,13.057 L42.131,14.207 L35.626,18.707 L37.000,20.689 L41.521,17.561 ZM34.699,29.834 L33.553,30.886 L28.145,25.010 L24.841,28.044 L23.892,27.013 L31.648,19.893 L32.596,20.924 L29.291,23.957 L34.699,29.834 ZM21.359,32.117 L27.491,37.234 L26.493,38.427 L20.360,33.310 L17.483,36.750 L16.408,35.853 L23.161,27.779 L24.237,28.676 L21.359,32.117 ZM12.272,44.913 L14.320,46.187 L17.229,41.525 L18.418,42.264 L15.509,46.927 L17.865,48.394 L22.242,41.377 L23.431,42.117 L18.231,50.453 L10.259,45.492 L15.267,37.464 L16.457,38.204 L12.272,44.913 ZM12.950,50.775 C13.195,51.342 13.226,51.990 13.042,52.720 L17.398,51.859 L16.681,53.520 L12.387,54.435 L10.509,58.783 L13.797,60.200 L13.180,61.627 L4.556,57.912 L7.490,51.118 C7.880,50.214 8.431,49.610 9.142,49.304 C9.469,49.164 9.808,49.094 10.161,49.094 C10.576,49.094 11.009,49.191 11.459,49.385 C12.190,49.700 12.687,50.163 12.950,50.775 ZM10.828,50.849 C10.583,50.744 10.353,50.691 10.137,50.691 C9.512,50.691 9.009,51.133 8.627,52.017 L6.459,57.038 L9.223,58.229 L11.447,53.077 C11.923,51.975 11.717,51.232 10.828,50.849 ZM8.101,62.107 C9.400,62.438 10.356,63.203 10.970,64.402 C11.541,65.519 11.655,66.752 11.310,68.099 L9.768,74.138 L0.667,71.820 L2.136,66.069 C2.540,64.487 3.281,63.341 4.360,62.631 C5.075,62.160 5.864,61.924 6.727,61.924 C7.166,61.924 7.624,61.985 8.101,62.107 ZM5.049,64.063 C4.292,64.534 3.784,65.277 3.526,66.289 L2.409,70.659 L8.795,72.286 L9.985,67.628 C10.216,66.724 10.113,65.907 9.677,65.176 C9.241,64.445 8.564,63.963 7.647,63.729 C7.310,63.643 6.986,63.600 6.675,63.600 C6.086,63.600 5.544,63.755 5.049,64.063 ZM9.300,78.224 L0.000,76.912 L0.218,75.373 L9.518,76.684 L9.300,78.224 ZM2.838,102.416 C3.613,102.236 4.288,102.314 4.863,102.651 C5.398,102.961 5.808,103.464 6.094,104.160 L9.087,100.884 L9.498,102.646 L6.586,105.929 L7.661,110.541 L11.148,109.731 L11.501,111.245 L2.353,113.371 L0.674,106.165 C0.451,105.206 0.534,104.393 0.925,103.725 C1.315,103.058 1.953,102.622 2.838,102.416 ZM2.124,106.214 L3.365,111.540 L6.296,110.858 L5.023,105.394 C4.751,104.225 4.143,103.749 3.200,103.968 C2.189,104.204 1.830,104.952 2.124,106.214 ZM7.570,123.370 L9.813,122.481 L7.783,117.374 L9.085,116.858 L11.115,121.964 L13.695,120.941 L10.641,113.258 L11.943,112.741 L15.572,121.870 L6.842,125.331 L3.348,116.540 L4.650,116.024 L7.570,123.370 ZM11.260,130.723 L18.215,126.793 L18.982,128.146 L12.027,132.076 L14.237,135.978 L13.017,136.667 L7.830,127.510 L9.050,126.821 L11.260,130.723 ZM22.963,134.454 L21.291,144.832 L27.368,140.105 L28.325,141.332 L20.914,147.095 L19.727,145.572 L21.399,135.190 L15.319,139.919 L14.363,138.692 L21.773,132.928 L22.963,134.454 ZM29.914,153.946 L31.568,152.191 L27.562,148.426 L28.522,147.407 L32.528,151.172 L34.430,149.152 L28.402,143.488 L29.362,142.468 L36.524,149.199 L30.088,156.031 L23.191,149.550 L24.151,148.531 L29.914,153.946 ZM37.783,160.339 C38.571,160.888 39.237,161.216 39.785,161.324 C40.332,161.431 40.719,161.322 40.947,160.997 C41.184,160.657 41.135,160.253 40.797,159.786 C40.557,159.450 40.090,159.008 39.397,158.461 C38.383,157.648 37.721,157.102 37.410,156.822 C36.535,156.023 35.988,155.288 35.770,154.619 C35.552,153.951 35.665,153.298 36.111,152.661 C36.680,151.846 37.483,151.468 38.518,151.526 C39.553,151.585 40.748,152.086 42.102,153.031 C44.066,154.401 45.292,155.899 45.780,157.525 L44.432,157.959 C43.741,156.381 42.701,155.108 41.312,154.139 C40.411,153.511 39.626,153.148 38.956,153.049 C38.313,152.958 37.845,153.122 37.553,153.540 C37.211,154.029 37.296,154.572 37.805,155.170 C38.072,155.483 38.890,156.185 40.257,157.276 C41.467,158.246 42.238,159.037 42.570,159.648 C42.958,160.361 42.907,161.068 42.416,161.769 C41.912,162.491 41.174,162.825 40.205,162.771 C39.236,162.717 38.134,162.259 36.900,161.398 C35.241,160.241 34.117,158.892 33.526,157.353 L34.904,157.034 C35.640,158.411 36.599,159.512 37.783,160.339 ZM50.929,167.558 L52.009,165.403 L47.091,162.942 L47.719,161.691 L52.637,164.152 L53.880,161.672 L46.480,157.970 L47.107,156.719 L55.899,161.118 L51.693,169.506 L43.226,165.270 L43.853,164.018 L50.929,167.558 ZM60.284,171.439 C61.192,171.749 61.924,171.880 62.479,171.833 C63.035,171.785 63.377,171.573 63.506,171.198 C63.640,170.805 63.481,170.431 63.027,170.075 C62.703,169.819 62.132,169.523 61.315,169.189 C60.115,168.688 59.327,168.346 58.951,168.163 C57.889,167.636 57.160,167.081 56.765,166.499 C56.371,165.917 56.299,165.257 56.551,164.522 C56.873,163.582 57.539,162.997 58.550,162.767 C59.561,162.537 60.848,162.689 62.411,163.223 C64.678,163.998 66.271,165.099 67.189,166.526 L66.014,167.316 C64.914,165.991 63.562,165.055 61.958,164.506 C60.919,164.151 60.064,164.019 59.393,164.110 C58.750,164.200 58.345,164.486 58.180,164.969 C57.987,165.533 58.219,166.032 58.874,166.466 C59.217,166.693 60.197,167.141 61.813,167.812 C63.245,168.410 64.204,168.958 64.693,169.453 C65.263,170.031 65.409,170.725 65.132,171.534 C64.847,172.367 64.231,172.892 63.284,173.107 C62.337,173.323 61.152,173.187 59.728,172.701 C57.814,172.047 56.359,171.062 55.366,169.746 L56.602,169.059 C57.690,170.178 58.917,170.972 60.284,171.439 ZM67.752,165.192 L76.407,166.829 L74.660,176.046 L73.130,175.757 L74.617,167.914 L67.492,166.567 L67.752,165.192 ZM85.874,175.523 L85.998,173.116 L80.505,172.835 L80.577,171.437 L86.070,171.719 L86.212,168.949 L77.946,168.526 L78.018,167.128 L87.838,167.631 L87.357,177.000 L77.900,176.516 L77.972,175.119 L85.874,175.523 ZM92.135,171.622 L99.619,170.844 L99.186,166.694 L100.735,166.534 L101.707,175.864 L100.159,176.025 L99.764,172.236 L92.280,173.014 L92.675,176.803 L91.126,176.963 L90.155,167.633 L91.703,167.472 L92.135,171.622 ZM110.712,163.717 C111.949,163.330 113.083,163.136 114.115,163.136 C114.991,163.136 115.792,163.275 116.521,163.554 L116.041,164.886 C115.286,164.697 114.536,164.602 113.791,164.602 C112.888,164.602 111.994,164.741 111.108,165.019 C110.060,165.347 109.292,165.746 108.805,166.216 C108.340,166.669 108.184,167.139 108.337,167.626 C108.504,168.158 108.938,168.425 109.639,168.425 C109.685,168.425 109.733,168.424 109.783,168.421 C110.193,168.402 111.249,168.184 112.950,167.769 C114.106,167.490 115.021,167.351 115.695,167.351 C115.900,167.351 116.083,167.364 116.243,167.390 C117.045,167.518 117.574,167.991 117.830,168.807 C118.094,169.648 117.908,170.435 117.273,171.168 C116.638,171.901 115.602,172.492 114.166,172.942 C113.083,173.281 112.055,173.451 111.083,173.451 C110.321,173.451 109.593,173.347 108.898,173.139 L109.487,171.854 C110.067,171.952 110.634,172.001 111.191,172.001 C112.114,172.001 113.006,171.866 113.866,171.597 C114.782,171.310 115.450,170.983 115.869,170.616 C116.289,170.249 116.439,169.876 116.320,169.497 C116.196,169.102 115.845,168.894 115.268,168.876 C115.241,168.875 115.213,168.874 115.183,168.874 C114.771,168.874 114.164,168.974 113.363,169.174 C112.100,169.479 111.262,169.669 110.851,169.744 C110.310,169.838 109.823,169.885 109.391,169.885 C108.888,169.885 108.459,169.821 108.102,169.695 C107.439,169.459 106.991,168.970 106.758,168.228 C106.461,167.280 106.651,166.415 107.330,165.632 C108.009,164.849 109.136,164.210 110.712,163.717 ZM119.127,160.879 L128.961,164.620 L125.561,157.718 L126.958,157.031 L131.104,165.449 L129.369,166.301 L119.530,162.558 L122.933,169.465 L121.536,170.151 L117.389,161.733 L119.127,160.879 ZM133.757,159.222 L132.954,158.076 L137.460,154.926 L135.869,152.654 L129.087,157.393 L128.285,156.247 L136.342,150.616 L141.726,158.304 L133.966,163.726 L133.163,162.579 L139.647,158.048 L138.264,156.073 L133.757,159.222 ZM140.521,146.916 L141.663,145.859 L147.098,151.710 L150.388,148.661 L151.341,149.687 L143.619,156.843 L142.666,155.817 L145.957,152.768 L140.521,146.916 ZM153.851,144.572 L147.694,139.484 L148.687,138.286 L154.843,143.374 L157.705,139.920 L158.784,140.812 L152.069,148.918 L150.989,148.026 L153.851,144.572 ZM82.713,20.492 C108.898,20.492 130.123,41.941 130.123,68.398 C130.123,85.029 121.731,99.676 108.997,108.265 C114.017,100.666 116.945,91.535 116.945,81.706 C116.945,55.258 95.719,33.811 69.533,33.811 C59.812,33.811 50.772,36.766 43.250,41.838 C51.749,28.967 66.251,20.492 82.713,20.492 ZM99.065,107.036 L99.065,88.499 L104.402,83.170 L111.154,83.170 C111.308,84.461 111.472,86.179 111.275,88.499 L104.399,88.499 L104.399,92.229 L110.666,92.105 C110.418,93.196 109.629,95.568 108.604,97.434 L104.399,97.558 L104.399,103.065 C103.675,103.752 102.089,105.361 99.065,107.036 ZM88.474,109.919 L88.474,62.817 C96.181,63.081 102.838,66.893 106.981,72.684 L103.113,76.566 C101.547,74.076 98.514,70.861 93.808,69.203 L93.808,83.170 L101.750,83.170 L96.412,88.499 L93.808,88.499 L93.808,109.133 C91.782,109.681 89.451,109.919 88.474,109.919 ZM105.970,139.794 C115.692,139.794 124.735,136.836 132.253,131.764 C123.755,144.634 109.254,153.112 92.793,153.112 C66.604,153.112 45.379,131.658 45.379,105.207 C45.379,88.573 53.771,73.920 66.506,65.337 C61.484,72.936 58.557,82.069 58.557,91.891 C58.557,118.347 79.785,139.794 105.970,139.794 ZM70.734,70.078 L80.489,85.413 L80.481,63.957 C82.002,63.429 84.339,62.989 85.817,62.887 L85.820,101.840 L84.313,101.840 L72.453,82.674 L72.451,82.671 L70.746,79.917 C70.363,81.011 67.662,87.999 72.099,95.631 C74.994,100.609 80.346,103.922 85.821,104.457 L85.821,109.855 C77.802,109.278 71.048,104.599 67.206,98.003 L67.218,98.003 C65.411,94.709 64.154,90.593 64.154,86.361 C64.154,80.157 66.677,74.324 70.734,70.078 ZM26.542,112.298 C20.480,99.712 22.501,85.193 22.501,85.193 C25.195,65.916 39.898,54.460 39.898,54.460 C52.695,43.802 67.961,44.255 67.961,44.255 C96.696,43.233 108.818,65.349 108.818,65.349 C96.472,56.843 84.349,57.410 84.349,57.410 C64.593,56.274 51.685,69.092 51.685,69.092 C41.246,77.598 37.094,92.225 37.094,92.225 C30.359,113.433 42.930,131.577 42.930,131.577 C35.073,127.494 26.542,112.298 26.542,112.298 ZM150.489,62.764 C156.182,75.524 153.740,89.977 153.740,89.977 C150.486,109.166 135.456,120.177 135.456,120.177 C122.356,130.455 107.109,129.549 107.109,129.549 C78.358,129.712 66.884,107.245 66.884,107.245 C78.978,116.117 91.112,115.912 91.112,115.912 C110.824,117.632 124.103,105.204 124.103,105.204 C134.783,97.013 139.360,82.514 139.360,82.514 C146.709,61.515 134.669,43.009 134.669,43.009 C142.407,47.321 150.489,62.764 150.489,62.764 ZM162.878,131.734 L160.824,130.469 L157.937,135.145 L156.744,134.411 L159.631,129.734 L157.268,128.279 L152.924,135.316 L151.732,134.581 L156.893,126.221 L164.887,131.145 L159.917,139.196 L158.724,138.462 L162.878,131.734 ZM162.173,125.874 C161.925,125.309 161.891,124.660 162.071,123.930 L157.719,124.811 L158.428,123.147 L162.719,122.212 L164.576,117.855 L161.282,116.454 L161.891,115.023 L170.533,118.698 L167.631,125.506 C167.245,126.412 166.697,127.019 165.987,127.328 C165.657,127.471 165.314,127.543 164.957,127.543 C164.546,127.543 164.117,127.448 163.670,127.257 C162.937,126.946 162.439,126.485 162.173,125.874 ZM164.294,125.791 C164.537,125.894 164.765,125.946 164.979,125.946 C165.607,125.946 166.110,125.501 166.489,124.612 L168.634,119.581 L165.865,118.403 L163.664,123.565 C163.194,124.670 163.403,125.412 164.294,125.791 ZM166.968,114.520 C165.667,114.195 164.707,113.435 164.089,112.238 C163.512,111.123 163.393,109.891 163.731,108.543 L165.245,102.496 L174.357,104.772 L172.915,110.530 C172.518,112.113 171.782,113.263 170.707,113.978 C169.988,114.457 169.192,114.696 168.320,114.696 C167.888,114.696 167.437,114.637 166.968,114.520 ZM170.012,112.549 C170.766,112.074 171.270,111.330 171.524,110.316 L172.619,105.942 L166.226,104.344 L165.059,109.007 C164.832,109.913 164.938,110.729 165.378,111.458 C165.817,112.187 166.496,112.666 167.415,112.895 C167.746,112.978 168.065,113.020 168.371,113.020 C168.967,113.020 169.513,112.863 170.012,112.549 ZM165.693,98.408 L174.999,99.677 L174.789,101.217 L165.483,99.949 L165.693,98.408 Z" class="cls-1"/>
</svg>
