<?xml version="1.0" encoding="UTF-8" standalone="no"?>
<!DOCTYPE svg PUBLIC "-//W3C//DTD SVG 20010904//EN"
              "http://www.w3.org/TR/2001/REC-SVG-20010904/DTD/svg10.dtd">
<?xml-stylesheet type="text/css" href=".../styles/theme.css"?>

<svg xmlns="http://www.w3.org/2000/svg" width="16.6667in" height="16.6667in" viewBox="0 0 1200 1200">
  <path id="mannaz" fill="#FA695C" stroke-width="1" d="M 662.00,187.00
           C 662.00,187.00 684.00,192.15 684.00,192.15
             684.00,192.15 723.00,205.40 723.00,205.40
             723.00,205.40 741.01,214.63 741.01,214.63
             741.01,214.63 742.00,222.00 742.00,222.00
             742.00,222.00 742.00,596.00 742.00,596.00
             742.00,596.00 663.00,596.00 663.00,596.00
             663.00,596.00 663.00,355.00 663.00,355.00
             662.98,342.66 659.31,343.08 651.42,334.00
             651.42,334.00 639.17,321.00 639.17,321.00
             639.17,321.00 617.00,297.00 617.00,297.00
             617.00,297.00 605.91,285.01 605.91,285.01
             604.50,283.55 602.19,281.04 600.00,281.04
             597.81,281.04 595.50,283.55 594.09,285.01
             594.09,285.01 583.00,297.00 583.00,297.00
             583.00,297.00 560.83,321.00 560.83,321.00
             560.83,321.00 548.58,334.00 548.58,334.00
             540.69,343.08 537.02,342.66 537.00,355.00
             537.00,355.00 537.00,596.00 537.00,596.00
             537.00,596.00 457.00,596.00 457.00,596.00
             457.00,596.00 457.00,223.00 457.00,223.00
             457.00,221.14 456.88,217.87 457.60,216.21
             459.09,212.78 468.46,208.94 472.00,207.43
             483.77,202.39 505.69,194.57 518.00,191.65
             521.82,190.75 534.61,187.39 537.72,188.59
             540.03,189.48 545.97,195.94 547.99,198.00
             547.99,198.00 572.01,224.00 572.01,224.00
             572.01,224.00 591.91,245.00 591.91,245.00
             593.73,246.95 597.25,251.96 600.00,251.96
             602.23,251.96 604.08,249.48 605.42,247.99
             605.42,247.99 616.83,236.00 616.83,236.00
             616.83,236.00 662.00,187.00 662.00,187.00 Z
           M 538.00,213.00
           C 536.11,217.76 537.00,239.44 537.00,246.00
             537.00,246.00 537.00,320.00 537.00,320.00
             541.82,317.38 550.56,307.45 554.42,303.00
             554.42,303.00 575.00,281.00 575.00,281.00
             577.84,278.14 586.37,270.02 586.26,266.00
             586.15,262.02 577.90,255.01 575.09,252.00
             575.09,252.00 549.01,224.00 549.01,224.00
             544.80,219.68 542.99,216.65 538.00,213.00 Z
           M 663.00,213.00
           C 657.36,215.69 655.29,219.59 650.99,224.00
             650.99,224.00 624.91,252.00 624.91,252.00
             622.10,255.01 613.85,262.02 613.74,266.00
             613.63,270.02 622.16,278.14 625.00,281.00
             625.00,281.00 644.72,302.00 644.72,302.00
             649.24,307.14 657.42,316.55 663.00,320.00
             663.00,320.00 663.00,213.00 663.00,213.00 Z" />
  <path id="megingjord" fill="#5dc6c6" stroke-width="1" d="M 751.00,219.00
           C 780.99,231.99 819.39,264.80 841.17,289.00
             878.24,330.19 904.47,380.87 916.42,435.00
             919.54,449.13 923.83,474.87 924.00,489.00
             924.00,489.00 924.00,521.00 924.00,521.00
             924.00,521.00 922.16,542.00 922.16,542.00
             916.97,590.60 900.40,637.52 874.58,679.00
             857.83,705.89 835.93,731.01 812.00,751.71
             783.98,775.96 751.62,795.25 717.00,808.42
             689.83,818.76 664.94,825.07 636.00,828.16
             636.00,828.16 617.00,830.00 617.00,830.00
             617.00,830.00 585.00,830.00 585.00,830.00
             566.43,829.97 531.11,823.74 513.00,818.57
             410.66,789.37 329.48,714.49 293.69,614.00
             283.02,584.04 276.05,548.81 276.00,517.00
             276.00,517.00 275.34,506.00 275.34,506.00
             275.34,506.00 276.00,495.00 276.00,495.00
             276.00,495.00 276.00,487.00 276.00,487.00
             276.17,472.64 279.36,454.19 282.20,440.00
             293.93,381.34 323.67,325.19 364.96,282.00
             382.08,264.10 398.57,250.56 419.00,236.66
             426.28,231.71 439.85,222.38 448.00,220.00
             448.00,220.00 448.00,363.00 448.00,363.00
             448.00,364.87 448.13,368.03 447.43,369.71
             446.37,372.23 443.05,374.49 441.00,376.29
             441.00,376.29 426.01,390.00 426.01,390.00
             408.21,408.03 394.12,427.91 381.86,450.00
             373.52,465.04 367.17,482.47 362.58,499.00
             344.09,565.48 354.94,634.13 390.45,693.00
             401.93,712.04 416.81,729.01 433.00,744.09
             454.36,763.98 473.51,776.56 500.00,788.69
             533.46,804.02 570.38,810.42 607.00,810.00
             607.00,810.00 617.00,809.09 617.00,809.09
             679.29,804.73 735.69,778.24 778.96,733.00
             807.65,703.01 830.20,661.45 839.76,621.00
             842.43,609.72 845.98,587.34 846.16,576.00
             846.16,576.00 846.16,562.00 846.16,562.00
             846.16,562.00 846.16,550.00 846.16,550.00
             846.16,550.00 844.15,532.00 844.15,532.00
             839.36,491.91 822.68,451.51 798.85,419.00
             790.97,408.26 777.79,393.02 768.00,384.17
             764.79,381.26 752.85,371.90 751.60,368.83
             750.88,367.06 751.00,363.95 751.00,362.00
             751.00,362.00 751.00,219.00 751.00,219.00 Z" />
</svg>
